<mxfile modified="2022-10-10T06:02:38.656Z" host="app.diagrams.net" agent="5.0 (Windows)" etag="z4SOIxghvFDFwAuM8aVl" version="20.4.0" type="github">
  <diagram id="Ht1M8jgEwFfnCIfOTk4-" name="Page-1">
    <mxGraphModel dx="2905" dy="794" grid="1" gridSize="10" guides="1" tooltips="1" connect="1" arrows="1" fold="1" page="1" pageScale="1" pageWidth="1169" pageHeight="827" math="0" shadow="0">
      <root>
        <mxCell id="0" />
        <mxCell id="1" parent="0" />
        <mxCell id="UEzPUAAOIrF-is8g5C7q-74" value="" style="points=[[0,0],[0.25,0],[0.5,0],[0.75,0],[1,0],[1,0.25],[1,0.5],[1,0.75],[1,1],[0.75,1],[0.5,1],[0.25,1],[0,1],[0,0.75],[0,0.5],[0,0.25]];outlineConnect=0;gradientColor=none;html=1;whiteSpace=wrap;fontSize=12;fontStyle=0;shape=mxgraph.aws4.group;grIcon=mxgraph.aws4.group_aws_cloud_alt;strokeColor=#232F3E;fillColor=none;verticalAlign=top;align=left;spacingLeft=30;fontColor=#232F3E;dashed=0;labelBackgroundColor=#ffffff;container=1;pointerEvents=0;collapsible=0;recursiveResize=0;" parent="1" vertex="1">
          <mxGeometry x="-310" y="100" width="837.73" height="650" as="geometry" />
        </mxCell>
        <mxCell id="-Wzre4x8Gy2SveKogml1-7" value="" style="outlineConnect=0;dashed=0;verticalLabelPosition=bottom;verticalAlign=top;align=center;html=1;shape=mxgraph.aws3.cloud_2;fillColor=#F58534;gradientColor=none;fontSize=20;" vertex="1" parent="UEzPUAAOIrF-is8g5C7q-74">
          <mxGeometry width="120" height="110" as="geometry" />
        </mxCell>
        <mxCell id="-Wzre4x8Gy2SveKogml1-8" value="AWS Cloud" style="text;html=1;resizable=0;autosize=1;align=center;verticalAlign=middle;points=[];fillColor=none;strokeColor=none;rounded=0;fontStyle=1;fontSize=35;" vertex="1" parent="UEzPUAAOIrF-is8g5C7q-74">
          <mxGeometry x="340" y="600" width="210" height="60" as="geometry" />
        </mxCell>
        <mxCell id="-Wzre4x8Gy2SveKogml1-26" style="edgeStyle=orthogonalEdgeStyle;rounded=0;orthogonalLoop=1;jettySize=auto;html=1;fontSize=20;startArrow=none;" edge="1" parent="UEzPUAAOIrF-is8g5C7q-74" source="-Wzre4x8Gy2SveKogml1-29" target="-Wzre4x8Gy2SveKogml1-25">
          <mxGeometry relative="1" as="geometry" />
        </mxCell>
        <mxCell id="-Wzre4x8Gy2SveKogml1-37" style="edgeStyle=orthogonalEdgeStyle;rounded=0;orthogonalLoop=1;jettySize=auto;html=1;entryX=1;entryY=0.5;entryDx=0;entryDy=0;entryPerimeter=0;fontSize=20;startArrow=none;" edge="1" parent="UEzPUAAOIrF-is8g5C7q-74" source="-Wzre4x8Gy2SveKogml1-38" target="-Wzre4x8Gy2SveKogml1-36">
          <mxGeometry relative="1" as="geometry">
            <Array as="points" />
          </mxGeometry>
        </mxCell>
        <mxCell id="-Wzre4x8Gy2SveKogml1-13" value="" style="shape=image;html=1;verticalAlign=top;verticalLabelPosition=bottom;labelBackgroundColor=#ffffff;imageAspect=0;aspect=fixed;image=https://cdn0.iconfinder.com/data/icons/long-shadow-web-icons/512/angular-symbol-128.png;fontSize=20;" vertex="1" parent="UEzPUAAOIrF-is8g5C7q-74">
          <mxGeometry x="640" y="336" width="128" height="128" as="geometry" />
        </mxCell>
        <mxCell id="-Wzre4x8Gy2SveKogml1-14" value="&lt;div&gt;Angular Hosted on S3&lt;/div&gt;" style="text;html=1;resizable=0;autosize=1;align=center;verticalAlign=middle;points=[];fillColor=none;strokeColor=none;rounded=0;fontStyle=1;fontSize=20;" vertex="1" parent="UEzPUAAOIrF-is8g5C7q-74">
          <mxGeometry x="589" y="466" width="230" height="40" as="geometry" />
        </mxCell>
        <mxCell id="-Wzre4x8Gy2SveKogml1-28" style="edgeStyle=orthogonalEdgeStyle;rounded=0;orthogonalLoop=1;jettySize=auto;html=1;fontSize=20;startArrow=none;" edge="1" parent="UEzPUAAOIrF-is8g5C7q-74" source="-Wzre4x8Gy2SveKogml1-30" target="-Wzre4x8Gy2SveKogml1-27">
          <mxGeometry relative="1" as="geometry" />
        </mxCell>
        <mxCell id="-Wzre4x8Gy2SveKogml1-25" value="" style="sketch=0;points=[[0,0,0],[0.25,0,0],[0.5,0,0],[0.75,0,0],[1,0,0],[0,1,0],[0.25,1,0],[0.5,1,0],[0.75,1,0],[1,1,0],[0,0.25,0],[0,0.5,0],[0,0.75,0],[1,0.25,0],[1,0.5,0],[1,0.75,0]];outlineConnect=0;fontColor=#232F3E;gradientColor=#F78E04;gradientDirection=north;fillColor=#D05C17;strokeColor=#ffffff;dashed=0;verticalLabelPosition=bottom;verticalAlign=top;align=center;html=1;fontSize=12;fontStyle=0;aspect=fixed;shape=mxgraph.aws4.resourceIcon;resIcon=mxgraph.aws4.elastic_beanstalk;" vertex="1" parent="UEzPUAAOIrF-is8g5C7q-74">
          <mxGeometry x="340" y="336" width="128" height="128" as="geometry" />
        </mxCell>
        <mxCell id="-Wzre4x8Gy2SveKogml1-27" value="" style="sketch=0;points=[[0,0,0],[0.25,0,0],[0.5,0,0],[0.75,0,0],[1,0,0],[0,1,0],[0.25,1,0],[0.5,1,0],[0.75,1,0],[1,1,0],[0,0.25,0],[0,0.5,0],[0,0.75,0],[1,0.25,0],[1,0.5,0],[1,0.75,0]];outlineConnect=0;fontColor=#232F3E;gradientColor=#4D72F3;gradientDirection=north;fillColor=#3334B9;strokeColor=#ffffff;dashed=0;verticalLabelPosition=bottom;verticalAlign=top;align=center;html=1;fontSize=12;fontStyle=0;aspect=fixed;shape=mxgraph.aws4.resourceIcon;resIcon=mxgraph.aws4.rds;" vertex="1" parent="UEzPUAAOIrF-is8g5C7q-74">
          <mxGeometry x="60" y="336" width="130" height="130" as="geometry" />
        </mxCell>
        <mxCell id="-Wzre4x8Gy2SveKogml1-29" value="Fetches data" style="text;html=1;resizable=0;autosize=1;align=center;verticalAlign=middle;points=[];fillColor=none;strokeColor=none;rounded=0;fontStyle=1;fontSize=20;" vertex="1" parent="UEzPUAAOIrF-is8g5C7q-74">
          <mxGeometry x="478" y="380" width="150" height="40" as="geometry" />
        </mxCell>
        <mxCell id="-Wzre4x8Gy2SveKogml1-31" value="" style="edgeStyle=orthogonalEdgeStyle;rounded=0;orthogonalLoop=1;jettySize=auto;html=1;fontSize=20;endArrow=none;" edge="1" parent="UEzPUAAOIrF-is8g5C7q-74" source="-Wzre4x8Gy2SveKogml1-13" target="-Wzre4x8Gy2SveKogml1-29">
          <mxGeometry relative="1" as="geometry">
            <mxPoint x="330" y="500" as="sourcePoint" />
            <mxPoint x="168" y="500" as="targetPoint" />
          </mxGeometry>
        </mxCell>
        <mxCell id="-Wzre4x8Gy2SveKogml1-30" value="Saves data" style="text;html=1;resizable=0;autosize=1;align=center;verticalAlign=middle;points=[];fillColor=none;strokeColor=none;rounded=0;fontStyle=1;fontSize=20;" vertex="1" parent="UEzPUAAOIrF-is8g5C7q-74">
          <mxGeometry x="200" y="380" width="130" height="40" as="geometry" />
        </mxCell>
        <mxCell id="-Wzre4x8Gy2SveKogml1-33" value="" style="edgeStyle=orthogonalEdgeStyle;rounded=0;orthogonalLoop=1;jettySize=auto;html=1;fontSize=20;endArrow=none;" edge="1" parent="UEzPUAAOIrF-is8g5C7q-74" source="-Wzre4x8Gy2SveKogml1-25" target="-Wzre4x8Gy2SveKogml1-30">
          <mxGeometry relative="1" as="geometry">
            <mxPoint x="30" y="500" as="sourcePoint" />
            <mxPoint x="-120" y="501" as="targetPoint" />
          </mxGeometry>
        </mxCell>
        <mxCell id="-Wzre4x8Gy2SveKogml1-36" value="" style="outlineConnect=0;dashed=0;verticalLabelPosition=bottom;verticalAlign=top;align=center;html=1;shape=mxgraph.aws3.cognito;fillColor=#AD688B;gradientColor=none;fontSize=20;" vertex="1" parent="UEzPUAAOIrF-is8g5C7q-74">
          <mxGeometry x="324.75" y="50" width="143.25" height="165" as="geometry" />
        </mxCell>
        <mxCell id="-Wzre4x8Gy2SveKogml1-38" value="Authentication" style="text;html=1;resizable=0;autosize=1;align=center;verticalAlign=middle;points=[];fillColor=none;strokeColor=none;rounded=0;fontStyle=1;fontSize=20;" vertex="1" parent="UEzPUAAOIrF-is8g5C7q-74">
          <mxGeometry x="500" y="112.5" width="160" height="40" as="geometry" />
        </mxCell>
        <mxCell id="-Wzre4x8Gy2SveKogml1-39" value="" style="edgeStyle=orthogonalEdgeStyle;rounded=0;orthogonalLoop=1;jettySize=auto;html=1;entryX=1;entryY=0.5;entryDx=0;entryDy=0;entryPerimeter=0;fontSize=20;endArrow=none;" edge="1" parent="UEzPUAAOIrF-is8g5C7q-74" source="-Wzre4x8Gy2SveKogml1-13" target="-Wzre4x8Gy2SveKogml1-38">
          <mxGeometry relative="1" as="geometry">
            <mxPoint x="394" y="436" as="sourcePoint" />
            <mxPoint x="153.25" y="195" as="targetPoint" />
            <Array as="points">
              <mxPoint x="704" y="133" />
            </Array>
          </mxGeometry>
        </mxCell>
        <mxCell id="-Wzre4x8Gy2SveKogml1-40" value="&lt;div&gt;Udagram-API&lt;/div&gt;&lt;div&gt;on&lt;/div&gt;&lt;div&gt;Elastic&lt;/div&gt;&lt;div&gt;Beanstalk&lt;/div&gt;" style="text;html=1;resizable=0;autosize=1;align=center;verticalAlign=middle;points=[];fillColor=none;strokeColor=none;rounded=0;fontStyle=1;fontSize=20;" vertex="1" parent="UEzPUAAOIrF-is8g5C7q-74">
          <mxGeometry x="330" y="466" width="150" height="110" as="geometry" />
        </mxCell>
        <mxCell id="-Wzre4x8Gy2SveKogml1-41" value="&lt;div&gt;Amazon&lt;/div&gt;&lt;div&gt;RDS hosting&lt;/div&gt;&lt;div&gt;postgres&lt;br&gt;&lt;/div&gt;" style="text;html=1;resizable=0;autosize=1;align=center;verticalAlign=middle;points=[];fillColor=none;strokeColor=none;rounded=0;fontStyle=1;fontSize=20;" vertex="1" parent="UEzPUAAOIrF-is8g5C7q-74">
          <mxGeometry x="55" y="466" width="140" height="90" as="geometry" />
        </mxCell>
        <mxCell id="-Wzre4x8Gy2SveKogml1-42" value="&lt;div&gt;Amazon&lt;/div&gt;&lt;div&gt;Cognito&lt;/div&gt;" style="text;html=1;resizable=0;autosize=1;align=center;verticalAlign=middle;points=[];fillColor=none;strokeColor=none;rounded=0;fontStyle=1;fontSize=20;" vertex="1" parent="UEzPUAAOIrF-is8g5C7q-74">
          <mxGeometry x="346.37" y="215" width="100" height="60" as="geometry" />
        </mxCell>
        <mxCell id="-Wzre4x8Gy2SveKogml1-5" value="End User" style="text;html=1;resizable=0;autosize=1;align=center;verticalAlign=middle;points=[];fillColor=none;strokeColor=none;rounded=0;fontStyle=1;fontSize=20;" vertex="1" parent="1">
          <mxGeometry x="830" y="580" width="110" height="40" as="geometry" />
        </mxCell>
        <mxCell id="-Wzre4x8Gy2SveKogml1-23" style="edgeStyle=orthogonalEdgeStyle;rounded=0;orthogonalLoop=1;jettySize=auto;html=1;fontSize=20;startArrow=none;" edge="1" parent="1" source="-Wzre4x8Gy2SveKogml1-15" target="-Wzre4x8Gy2SveKogml1-13">
          <mxGeometry relative="1" as="geometry" />
        </mxCell>
        <mxCell id="-Wzre4x8Gy2SveKogml1-1" value="" style="sketch=0;html=1;aspect=fixed;strokeColor=none;shadow=0;align=center;verticalAlign=top;fillColor=#3B8DF1;shape=mxgraph.gcp2.cloud_computer" vertex="1" parent="1">
          <mxGeometry x="800" y="435" width="147.73" height="130" as="geometry" />
        </mxCell>
        <mxCell id="-Wzre4x8Gy2SveKogml1-15" value="User goes on site" style="text;html=1;resizable=0;autosize=1;align=center;verticalAlign=middle;points=[];fillColor=none;strokeColor=none;rounded=0;fontStyle=1;fontSize=20;" vertex="1" parent="1">
          <mxGeometry x="570" y="480" width="190" height="40" as="geometry" />
        </mxCell>
        <mxCell id="-Wzre4x8Gy2SveKogml1-24" value="" style="edgeStyle=orthogonalEdgeStyle;rounded=0;orthogonalLoop=1;jettySize=auto;html=1;fontSize=20;endArrow=none;" edge="1" parent="1" source="-Wzre4x8Gy2SveKogml1-1" target="-Wzre4x8Gy2SveKogml1-15">
          <mxGeometry relative="1" as="geometry">
            <mxPoint x="800" y="500" as="sourcePoint" />
            <mxPoint x="398" y="500" as="targetPoint" />
          </mxGeometry>
        </mxCell>
      </root>
    </mxGraphModel>
  </diagram>
</mxfile>
